<?xml version="1.0" standalone="no"?>
<!DOCTYPE svg PUBLIC "-//W3C//DTD SVG 20010904//EN"
 "http://www.w3.org/TR/2001/REC-SVG-20010904/DTD/svg10.dtd">
<svg version="1.0" xmlns="http://www.w3.org/2000/svg"
 width="290.000000pt" height="290.000000pt" viewBox="0 0 290.000000 290.000000"
 preserveAspectRatio="xMidYMid meet">
<metadata>
Created by potrace 1.11, written by Peter Selinger 2001-2013
</metadata>
<g transform="translate(0.000000,290.000000) scale(0.100000,-0.100000)"
fill="#000000" stroke="none">
<path d="M0 1450 l0 -1450 1450 0 1450 0 0 1450 0 1450 -1450 0 -1450 0 0
-1450z m706 526 c121 -32 213 -108 265 -219 37 -80 49 -146 49 -271 0 -254
-109 -417 -315 -471 -42 -11 -109 -15 -232 -15 l-173 0 0 495 0 495 178 0
c118 0 194 -5 228 -14z m1056 -24 c111 -54 160 -135 162 -262 2 -137 -54 -229
-169 -282 -45 -20 -69 -23 -227 -26 l-178 -4 0 -189 0 -189 -70 0 -70 0 0 496
0 496 243 -4 243 -3 66 -33z m948 -17 l0 -55 -240 0 -240 0 0 -170 0 -170 205
0 205 0 0 -55 0 -55 -205 0 -205 0 0 -215 0 -215 -70 0 -70 0 0 495 0 495 310
0 310 0 0 -55z"/>
<path d="M440 1495 l0 -388 113 5 c133 6 184 24 246 88 67 70 85 131 85 295 0
123 -3 147 -23 199 -51 130 -130 177 -308 184 l-113 5 0 -388z"/>
<path d="M1350 1686 l0 -196 133 0 c152 0 219 15 259 57 35 37 48 73 48 135 0
74 -31 132 -88 166 -45 26 -55 27 -199 31 l-153 3 0 -196z"/>
</g>
</svg>
